<svg class="plot-d6a7b5" fill="currentColor" font-family="system-ui, sans-serif" font-size="10" text-anchor="middle" width="640" height="400" viewBox="0 0 640 400" xmlns="http://www.w3.org/2000/svg" xmlns:xlink="http://www.w3.org/1999/xlink"><style>.plot-d6a7b5 {
  display: block;
  background: white;
  height: auto;
  height: intrinsic;
  max-width: 100%;
}
.plot-d6a7b5 text,
.plot-d6a7b5 tspan {
  white-space: pre;
}</style><g aria-label="y-axis tick" fill="none" stroke="currentColor"><path transform="translate(40,370)" d="M0,0L-6,0"/><path transform="translate(40,335)" d="M0,0L-6,0"/><path transform="translate(40,300)" d="M0,0L-6,0"/><path transform="translate(40,265)" d="M0,0L-6,0"/><path transform="translate(40,230)" d="M0,0L-6,0"/><path transform="translate(40,195)" d="M0,0L-6,0"/><path transform="translate(40,160)" d="M0,0L-6,0"/><path transform="translate(40,125.00000000000001)" d="M0,0L-6,0"/><path transform="translate(40,89.99999999999999)" d="M0,0L-6,0"/><path transform="translate(40,54.99999999999999)" d="M0,0L-6,0"/><path transform="translate(40,20)" d="M0,0L-6,0"/></g><g aria-label="y-axis tick label" text-anchor="end" font-variant="tabular-nums" transform="translate(-9,0)"><text y="0.32em" transform="translate(40,370)">0</text><text y="0.32em" transform="translate(40,335)">10</text><text y="0.32em" transform="translate(40,300)">20</text><text y="0.32em" transform="translate(40,265)">30</text><text y="0.32em" transform="translate(40,230)">40</text><text y="0.32em" transform="translate(40,195)">50</text><text y="0.32em" transform="translate(40,160)">60</text><text y="0.32em" transform="translate(40,125.00000000000001)">70</text><text y="0.32em" transform="translate(40,89.99999999999999)">80</text><text y="0.32em" transform="translate(40,54.99999999999999)">90</text><text y="0.32em" transform="translate(40,20)">100</text></g><g aria-label="y-axis label" text-anchor="start" transform="translate(-37,-17)"><text y="0.71em" transform="translate(40,20)">↑ value</text></g><g aria-label="x-axis tick" fill="none" stroke="currentColor"><path transform="translate(70.34883720930233,370)" d="M0,0L0,6"/><path transform="translate(120.93023255813952,370)" d="M0,0L0,6"/><path transform="translate(171.51162790697674,370)" d="M0,0L0,6"/><path transform="translate(222.09302325581393,370)" d="M0,0L0,6"/><path transform="translate(272.6744186046512,370)" d="M0,0L0,6"/><path transform="translate(323.25581395348837,370)" d="M0,0L0,6"/><path transform="translate(373.8372093023256,370)" d="M0,0L0,6"/><path transform="translate(424.41860465116275,370)" d="M0,0L0,6"/><path transform="translate(475,370)" d="M0,0L0,6"/><path transform="translate(525.5813953488372,370)" d="M0,0L0,6"/><path transform="translate(576.1627906976744,370)" d="M0,0L0,6"/></g><g aria-label="x-axis tick label" font-variant="tabular-nums" transform="translate(0,9)"><text transform="translate(70.34883720930233,370)"><tspan x="0" y="0.71em">11 PM</tspan><tspan x="0" dy="1em">Oct 1</tspan></text><text transform="translate(120.93023255813952,370)"><tspan x="0" y="0.71em">12 AM</tspan><tspan x="0" dy="1em">Oct 2</tspan></text><text y="0.71em" transform="translate(171.51162790697674,370)">1 AM</text><text y="0.71em" transform="translate(222.09302325581393,370)">2 AM</text><text y="0.71em" transform="translate(272.6744186046512,370)">3 AM</text><text y="0.71em" transform="translate(323.25581395348837,370)">4 AM</text><text y="0.71em" transform="translate(373.8372093023256,370)">5 AM</text><text y="0.71em" transform="translate(424.41860465116275,370)">6 AM</text><text y="0.71em" transform="translate(475,370)">7 AM</text><text y="0.71em" transform="translate(525.5813953488372,370)">8 AM</text><text y="0.71em" transform="translate(576.1627906976744,370)">9 AM</text></g><g aria-label="rule" stroke="lightgrey" stroke-width="0.4"><line x1="40" x2="620" y1="370" y2="370"/></g><g aria-label="line" fill="none" stroke-width="1.5" stroke-linejoin="round" stroke-linecap="round"><path stroke="purple" d="M40,345.5L46.744,345.5L53.488,338.5L60.233,345.5L66.977,345.5L73.721,342L80.465,345.5L87.209,342L93.953,342L100.698,338.5L107.442,338.5L114.186,328L120.93,335L127.674,310.5L134.419,296.5L141.163,310.5L147.907,282.5L154.651,296.5L161.395,289.5L168.14,247.5L174.884,279L181.628,303.5L188.372,275.5L195.116,254.5L201.86,272L208.605,184.5L215.349,254.5L222.093,268.5L228.837,275.5L235.581,275.5L242.326,286L249.07,279L255.814,296.5L262.558,296.5L269.302,303.5L276.047,307L282.791,321L289.535,314L296.279,321L303.023,317.5L309.767,317.5L316.512,317.5L323.256,321L330,324.5L336.744,317.5L343.488,324.5L350.233,321L356.977,321L363.721,324.5L370.465,328L377.209,331.5L383.953,317.5L390.698,328L397.442,328L404.186,324.5L410.93,331.5L417.674,331.5L424.419,345.5L431.163,331.5L437.907,328L444.651,335L451.395,331.5L458.14,324.5L464.884,328L471.628,328L478.372,331.5L485.116,338.5L491.86,345.5L498.605,345.5L505.349,335L512.093,328L518.837,342L525.581,342L532.326,338.5L539.07,335L545.814,349L552.558,338.5L559.302,342L566.047,335L572.791,345.5L579.535,349L586.279,345.5L593.023,342L599.767,345.5L606.512,342L613.256,342L620,335"/><path stroke="lightblue" d="M40,359.5L46.744,359.5L53.488,359.5L60.233,356L66.977,359.5L73.721,359.5L80.465,359.5L87.209,359.5L93.953,356L100.698,359.5L107.442,356L114.186,349L120.93,356L127.674,328L134.419,328L141.163,268.5L147.907,303.5L154.651,244L161.395,314L168.14,307L174.884,328L181.628,335L188.372,296.5L195.116,321L201.86,293L208.605,310.5L215.349,303.5L222.093,321L228.837,321L235.581,328L242.326,335L249.07,335L255.814,342L262.558,342L269.302,342L276.047,345.5L282.791,345.5L289.535,345.5L296.279,345.5L303.023,352.5L309.767,352.5L316.512,352.5L323.256,352.5L330,356L336.744,352.5L343.488,352.5L350.233,349L356.977,349L363.721,356L370.465,352.5L377.209,359.5L383.953,352.5L390.698,352.5L397.442,352.5L404.186,359.5L410.93,352.5L417.674,356L424.419,359.5L431.163,352.5L437.907,356L444.651,359.5L451.395,356L458.14,352.5L464.884,356L471.628,352.5L478.372,359.5L485.116,359.5L491.86,356L498.605,338.5L505.349,356L512.093,363L518.837,359.5L525.581,356L532.326,349L539.07,363L545.814,356L552.558,352.5L559.302,363L566.047,363L572.791,363L579.535,359.5L586.279,359.5L593.023,363L599.767,356L606.512,363L613.256,363L620,359.5"/><path stroke="gold" d="M40,366.5L46.744,363L53.488,363L60.233,363L66.977,363L73.721,363L80.465,363L87.209,363L93.953,363L100.698,363L107.442,352.5L114.186,338.5L120.93,356L127.674,338.5L134.419,349L141.163,335L147.907,268.5L154.651,307L161.395,307L168.14,328L174.884,338.5L181.628,251L188.372,286L195.116,328L201.86,314L208.605,282.5L215.349,296.5L222.093,324.5L228.837,310.5L235.581,335L242.326,342L249.07,331.5L255.814,335L262.558,345.5L269.302,345.5L276.047,352.5L282.791,352.5L289.535,352.5L296.279,352.5L303.023,356L309.767,356L316.512,356L323.256,356L330,363L336.744,359.5L343.488,359.5L350.233,356L356.977,356L363.721,363L370.465,359.5L377.209,363L383.953,356L390.698,359.5L397.442,363L404.186,352.5L410.93,359.5L417.674,356L424.419,359.5L431.163,363L437.907,363L444.651,356L451.395,359.5L458.14,363L464.884,359.5L471.628,363L478.372,363L485.116,363L491.86,363L498.605,366.5L505.349,370L512.093,359.5L518.837,359.5L525.581,359.5L532.326,363L539.07,363L545.814,359.5L552.558,366.5L559.302,363L566.047,363L572.791,363L579.535,366.5L586.279,363L593.023,363L599.767,366.5L606.512,366.5L613.256,363L620,363"/><path stroke="red" d="M40,366.5L46.744,366.5L53.488,366.5L60.233,366.5L66.977,366.5L73.721,366.5L80.465,366.5L87.209,366.5L93.953,366.5L100.698,366.5L107.442,366.5L114.186,359.5L120.93,349L127.674,349L134.419,331.5L141.163,282.5L147.907,338.5L154.651,226.5L161.395,226.5L168.14,296.5L174.884,324.5L181.628,244L188.372,216L195.116,272L201.86,209L208.605,170.5L215.349,258L222.093,261.5L228.837,296.5L235.581,303.5L242.326,321L249.07,331.5L255.814,331.5L262.558,324.5L269.302,338.5L276.047,345.5L282.791,342L289.535,342L296.279,345.5L303.023,345.5L309.767,349L316.512,349L323.256,342L330,345.5L336.744,349L343.488,352.5L350.233,345.5L356.977,349L363.721,345.5L370.465,342L377.209,349L383.953,349L390.698,345.5L397.442,349L404.186,349L410.93,359.5L417.674,352.5L424.419,356L431.163,352.5L437.907,352.5L444.651,359.5L451.395,359.5L458.14,345.5L464.884,349L471.628,345.5L478.372,359.5L485.116,359.5L491.86,349L498.605,359.5L505.349,352.5L512.093,363L518.837,363L525.581,345.5L532.326,356L539.07,356L545.814,363L552.558,363L559.302,352.5L566.047,352.5L572.791,359.5L579.535,366.5L586.279,359.5L593.023,352.5L599.767,356L606.512,363L613.256,359.5L620,352.5"/><path stroke="green" d="M40,366.5L46.744,366.5L53.488,366.5L60.233,366.5L66.977,366.5L73.721,366.5L80.465,366.5L87.209,366.5L93.953,366.5L100.698,366.5L107.442,363L114.186,356L120.93,359.5L127.674,230L134.419,188L141.163,202L147.907,170.5L154.651,20L161.395,72.5L168.14,254.5L174.884,293L181.628,51.5L188.372,212.5L195.116,149.5L201.86,149.5L208.605,184.5L215.349,198.5L222.093,219.5L228.837,286L235.581,314L242.326,324.5L249.07,328L255.814,307L262.558,331.5L269.302,321L276.047,328L282.791,338.5L289.535,342L296.279,342L303.023,349L309.767,349L316.512,349L323.256,349L330,352.5L336.744,349L343.488,352.5L350.233,349L356.977,349L363.721,356L370.465,349L377.209,349L383.953,352.5L390.698,345.5L397.442,352.5L404.186,349L410.93,345.5L417.674,363L424.419,352.5L431.163,345.5L437.907,363L444.651,356L451.395,356L458.14,356L464.884,352.5L471.628,352.5L478.372,359.5L485.116,363L491.86,345.5L498.605,352.5L505.349,356L512.093,363L518.837,352.5L525.581,363L532.326,363L539.07,352.5L545.814,349L552.558,363L559.302,352.5L566.047,359.5L572.791,363L579.535,359.5L586.279,359.5L593.023,356L599.767,359.5L606.512,356L613.256,356L620,359.5"/></g></svg>